<svg xmlns="http://www.w3.org/2000/svg" viewBox="0 0 512 512">
  <rect width="512" height="512" rx="96" fill="#111827"/>
  <path d="M112 301h31l26-67c8-21 28-35 50-35h92c22 0 42 14 50 35l26 67h13c13 0 24 11 24 24v33c0 13-11 24-24 24h-17a45 45 0 0 1-87 0H216a45 45 0 0 1-87 0h-17c-13 0-24-11-24-24v-33c0-13 11-24 24-24Z" fill="#f59e0b"/>
  <path d="M194 252h140l-11-29a22 22 0 0 0-21-14h-76c-9 0-17 6-21 14l-11 29Z" fill="#f8fafc"/>
  <circle cx="172" cy="382" r="22" fill="#f8fafc"/>
  <circle cx="340" cy="382" r="22" fill="#f8fafc"/>
  <path d="M132 146h248" stroke="#f8fafc" stroke-width="32" stroke-linecap="round"/>
</svg>
